<?xml version="1.0" encoding="UTF-8" standalone="no"?> <svg width="48" height="48" viewBox="0 0 48 48" fill="none" xmlns="http://www.w3.org/2000/svg">
<g clip-path="url(#clip0_6:82)">
<path d="M47.707 14.621C47.5195 14.4335 47.2652 14.3282 47 14.3282C46.7348 14.3282 46.4805 14.4335 46.293 14.621C42.942 17.973 39.021 17.847 35.277 17.206C34.672 17.106 34.084 16.992 33.506 16.879L32.212 16.624C31.747 16.531 31.287 16.439 30.837 16.358C27.025 15.658 22.981 15.31 19.146 19.146C15.787 22.503 15.646 26.02 16.122 29.403L14.878 29.158C14.522 29.088 14.155 29.024 13.791 28.958C13.4603 26.894 13.6283 24.7808 14.281 22.7949C14.9338 20.8091 16.0522 19.0083 17.543 17.543C21.672 13.415 26.197 13.416 29.668 13.875C30.925 14.05 32.129 14.287 33.347 14.534C33.603 14.588 33.859 14.643 34.102 14.688C38.469 15.544 41.786 15.924 44.69 13.019C44.8782 12.8315 44.9841 12.5769 44.9846 12.3113C44.9851 12.0456 44.88 11.7907 44.6925 11.6025C44.505 11.4143 44.2504 11.3083 43.9848 11.3079C43.7191 11.3074 43.4642 11.4125 43.276 11.6C42.7493 12.1398 42.1186 12.5671 41.422 12.856L35.14 6.57799C35.4301 5.88103 35.8588 5.25027 36.4 4.72399C36.5875 4.53582 36.6926 4.28087 36.6921 4.01522C36.6916 3.74958 36.5857 3.495 36.3975 3.30749C36.3043 3.21464 36.1938 3.14106 36.0722 3.09094C35.9506 3.04082 35.8203 3.01514 35.6887 3.01537C35.4231 3.01584 35.1685 3.12182 34.981 3.30999C32.409 5.88099 32.414 8.77599 33.042 12.437C32.2647 12.283 31.4773 12.142 30.68 12.014C30.153 8.49199 30.237 4.84899 33.38 1.70699C33.5675 1.51935 33.6728 1.26491 33.6727 0.999635C33.6726 0.734365 33.5671 0.479997 33.3795 0.292489C33.1919 0.104981 32.9374 -0.000307324 32.6721 -0.00021356C32.4069 -0.000119797 32.1525 0.105348 31.965 0.292989C28.381 3.87699 28.141 8.00999 28.626 11.751C26.3454 11.457 24.0277 11.6997 21.8576 12.4598C19.6874 13.2199 17.7247 14.4763 16.126 16.129C14.473 17.7275 13.2163 19.6901 12.4562 21.8604C11.6961 24.0306 11.4536 26.3484 11.748 28.629C8.008 28.144 3.874 28.384 0.289999 31.968C0.194489 32.0602 0.118307 32.1706 0.0658975 32.2926C0.0134885 32.4146 -0.0140977 32.5458 -0.0152515 32.6786C-0.0164054 32.8114 0.00889634 32.943 0.0591772 33.0659C0.109458 33.1888 0.183711 33.3005 0.277604 33.3944C0.371497 33.4883 0.483149 33.5625 0.606045 33.6128C0.728941 33.6631 0.860621 33.6884 0.9934 33.6872C1.12618 33.6861 1.2574 33.6585 1.3794 33.6061C1.50141 33.5537 1.61175 33.4775 1.704 33.382C5.056 30.031 8.976 30.159 12.72 30.797C13.32 30.897 13.913 31.011 14.491 31.124L15.785 31.379C16.25 31.472 16.71 31.564 17.16 31.645C20.971 32.345 25.016 32.692 28.851 28.857C32.21 25.5 32.351 21.983 31.875 18.6L33.119 18.845C33.475 18.915 33.842 18.979 34.206 19.045C34.5367 21.109 34.3687 23.2222 33.716 25.208C33.0632 27.1939 31.9448 28.9947 30.454 30.46C26.326 34.589 21.802 34.589 18.329 34.128C17.072 33.953 15.868 33.716 14.65 33.469C14.394 33.415 14.138 33.36 13.895 33.315C9.529 32.46 6.212 32.08 3.307 34.984C3.11923 35.1719 3.01379 35.4267 3.01388 35.6923C3.01398 35.958 3.11959 36.2127 3.3075 36.4005C3.4954 36.5883 3.75021 36.6937 4.01585 36.6936C4.2815 36.6935 4.53623 36.5879 4.724 36.4C5.25028 35.8588 5.88104 35.4301 6.578 35.14L12.86 41.422C12.5699 42.119 12.1412 42.7497 11.6 43.276C11.4125 43.4636 11.3072 43.7181 11.3073 43.9833C11.3074 44.2486 11.4129 44.503 11.6005 44.6905C11.7881 44.878 12.0426 44.9833 12.3079 44.9832C12.5731 44.9831 12.8275 44.8776 13.015 44.69C15.587 42.119 15.582 39.224 14.954 35.563C15.7307 35.717 16.518 35.858 17.316 35.986C17.843 39.508 17.759 43.151 14.616 46.293C14.5205 46.3852 14.4443 46.4956 14.3919 46.6176C14.3395 46.7396 14.3119 46.8708 14.3107 47.0036C14.3096 47.1364 14.3349 47.268 14.3852 47.3909C14.4355 47.5138 14.5097 47.6255 14.6036 47.7194C14.6975 47.8133 14.8091 47.8875 14.932 47.9378C15.0549 47.9881 15.1866 48.0134 15.3194 48.0122C15.4522 48.0111 15.5834 47.9835 15.7054 47.9311C15.8274 47.8787 15.9378 47.8025 16.03 47.707C19.614 44.123 19.854 39.99 19.369 36.249C21.6496 36.543 23.9673 36.3003 26.1374 35.5402C28.3076 34.7801 30.2703 33.5237 31.869 31.871C33.5218 30.2723 34.7783 28.3097 35.5384 26.1395C36.2985 23.9693 36.5412 21.6516 36.247 19.371C39.988 19.858 44.122 19.617 47.705 16.032C47.8918 15.8448 47.9969 15.5913 47.9973 15.3269C47.9977 15.0625 47.8933 14.8087 47.707 14.621V14.621ZM39.022 13.289C37.7216 13.2595 36.4266 13.1116 35.153 12.847C34.8881 11.5731 34.7398 10.2778 34.71 8.97699L39.022 13.289ZM29.792 18.208C30.0617 19.6309 30.1227 21.0855 29.973 22.526L25.473 18.026C26.9139 17.8769 28.3688 17.9382 29.792 18.208V18.208ZM19.887 21.3L26.698 28.11C26.1055 28.6135 25.4462 29.0328 24.739 29.356L18.639 23.256C18.9633 22.5498 19.3833 21.8917 19.887 21.3V21.3ZM18.208 29.789C17.9382 28.3664 17.8773 26.9121 18.027 25.472L22.527 29.972C21.0862 30.1219 19.6312 30.061 18.208 29.791V29.789ZM28.113 26.7L21.3 19.888C21.8925 19.3844 22.5517 18.9652 23.259 18.642L29.359 24.742C29.0354 25.4487 28.6162 26.1076 28.113 26.7V26.7ZM8.977 34.711C10.2778 34.7399 11.5732 34.8879 12.847 35.153C13.1119 36.4269 13.2602 37.7222 13.29 39.023L8.977 34.711Z" fill="black"/>
</g>
<defs>
<clipPath id="clip0_6:82">
<rect width="48" height="48" fill="white"/>
</clipPath>
</defs>
</svg>
